<?xml version="1.0" encoding="UTF-8"?>
<svg version="1.1" xmlns="http://www.w3.org/2000/svg" width="410" height="388">
<path d="M0 0 C1.05998199 -0.0049649 2.11996399 -0.00992981 3.21206665 -0.01504517 C6.6983507 -0.02957595 10.18458915 -0.03645607 13.67089844 -0.04199219 C14.87208061 -0.04481956 16.07326279 -0.04764694 17.31084442 -0.05056 C23.67630734 -0.06552114 30.04174781 -0.07476815 36.40722656 -0.07910156 C42.92586486 -0.08456021 49.44429156 -0.10854199 55.96286392 -0.13707352 C61.02321943 -0.15586735 66.08352584 -0.16091447 71.14391327 -0.16243744 C73.54364927 -0.16543038 75.94338512 -0.17334247 78.34308624 -0.18662262 C92.3833015 -0.25873319 105.80993811 0.46755643 119.65904999 2.80265045 C123.76483787 3.42336485 127.89518487 3.79415682 132.03027344 4.16113281 C132.03027344 4.82113281 132.03027344 5.48113281 132.03027344 6.16113281 C132.578125 6.23589844 133.12597656 6.31066406 133.69042969 6.38769531 C141.95474659 7.75836251 149.38852955 10.87088273 157.03027344 14.16113281 C158.20847656 14.66128906 159.38667969 15.16144531 160.60058594 15.67675781 C167.11871626 18.55017953 172.54134863 21.66312894 178.03027344 26.16113281 C179.07828125 26.95390625 180.12628906 27.74667969 181.20605469 28.56347656 C200.50949241 43.17989473 220.21952517 63.72888802 228.03027344 87.16113281 C228.52130985 88.47033247 229.01797915 89.7774257 229.51855469 91.08300781 C233.28025706 100.99428482 236.75975611 110.78613003 239.03027344 121.16113281 C239.17980469 121.81903809 239.32933594 122.47694336 239.48339844 123.15478516 C244.48758912 146.1320012 244.7415244 174.30085822 239.03027344 197.16113281 C238.72428223 198.41869385 238.72428223 198.41869385 238.41210938 199.70166016 C231.64851045 226.82004917 219.31760734 249.75473858 200.03027344 270.16113281 C199.29550781 270.96035156 198.56074219 271.75957031 197.80371094 272.58300781 C177.98402919 293.39698798 151.66896492 306.29889477 124.03027344 313.16113281 C123.04027344 313.16113281 122.05027344 313.16113281 121.03027344 313.16113281 C120.06476563 313.31453125 119.09925781 313.46792969 118.10449219 313.62597656 C112.7117045 314.4212199 107.28448798 314.53816301 101.84277344 314.72363281 C100.61187988 314.76681641 99.38098633 314.81 98.11279297 314.85449219 C84.3709414 315.29344146 70.62415374 315.2187826 56.87719727 315.12426758 C48.14781263 315.07500402 39.44249971 315.13487505 30.72167969 315.55566406 C29.96853485 315.5891394 29.21539001 315.62261475 28.43942261 315.65710449 C16.30160196 316.32781307 0.87546054 319.31594571 -7.96972656 328.16113281 C-9.1830937 328.85614024 -10.41564812 329.51787694 -11.65722656 330.16113281 C-16.66795729 332.89133866 -21.35408081 336.01909847 -26.07861328 339.20800781 C-31.19119456 342.65659464 -36.36086014 346.0045788 -41.57788086 349.29296875 C-43.9303601 350.78776967 -45.99145663 352.18286288 -47.96972656 354.16113281 C-69.50799233 369.13756134 -69.50799233 369.13756134 -82.02050781 367.96972656 C-88.21617963 366.82683565 -93.54585191 363.39529409 -97.32519531 358.35253906 C-100.62870644 352.80693373 -101.09820095 348.3732551 -101.17504883 342.00585938 C-101.18494843 341.29326462 -101.19484802 340.58066986 -101.20504761 339.84648132 C-101.23655795 337.4982736 -101.26137847 335.15004566 -101.28613281 332.80175781 C-101.30671139 331.17079146 -101.3277081 329.53983033 -101.34910583 327.90887451 C-101.40423321 323.62144204 -101.45368356 319.33396218 -101.50195312 315.04644775 C-101.5522364 310.66926875 -101.6078868 306.29215835 -101.66308594 301.91503906 C-101.77055331 293.33046169 -101.87202352 284.74582684 -101.96972656 276.16113281 C-102.58001709 275.8777002 -103.19030762 275.59426758 -103.8190918 275.30224609 C-114.19665772 269.79597488 -121.79436884 255.77251651 -127.96972656 246.16113281 C-128.97712891 244.59685547 -128.97712891 244.59685547 -130.00488281 243.00097656 C-152.99867313 205.45287501 -155.68565383 156.20074537 -146.21191406 114.08691406 C-138.70173497 83.19471737 -121.38128558 52.05435071 -95.38378906 32.95800781 C-93.670683 31.68288032 -91.97995351 30.37744154 -90.30566406 29.05175781 C-79.11353241 20.30319129 -61.60989612 8.16113281 -46.96972656 8.16113281 C-46.96972656 7.17113281 -46.96972656 6.18113281 -46.96972656 5.16113281 C-45.31972656 5.49113281 -43.66972656 5.82113281 -41.96972656 6.16113281 C-41.63972656 5.50113281 -41.30972656 4.84113281 -40.96972656 4.16113281 C-40.47472656 4.65613281 -40.47472656 4.65613281 -39.96972656 5.16113281 C-38.06292649 4.93481747 -38.06292649 4.93481747 -35.81347656 4.41894531 C-34.95496094 4.23976563 -34.09644531 4.06058594 -33.21191406 3.87597656 C-32.30699219 3.68132813 -31.40207031 3.48667969 -30.46972656 3.28613281 C-28.7101429 2.90982067 -26.94972316 2.53739601 -25.18847656 2.16894531 C-24.40408203 2.00023926 -23.6196875 1.8315332 -22.81152344 1.65771484 C-15.20813631 0.32908173 -7.70785322 0.00877482 0 0 Z M-45.96972656 50.16113281 C-46.60152832 50.45536133 -47.23333008 50.74958984 -47.88427734 51.05273438 C-56.28774604 54.97235939 -63.98594671 58.96499731 -70.96972656 65.16113281 C-72.21496094 66.22847656 -72.21496094 66.22847656 -73.48535156 67.31738281 C-78.75477361 71.92418293 -83.58272241 76.70521394 -87.96972656 82.16113281 C-88.47761719 82.79277344 -88.98550781 83.42441406 -89.50878906 84.07519531 C-92.0738157 87.44268839 -92.96972656 88.80857619 -92.96972656 93.16113281 C-94.45472656 93.65613281 -94.45472656 93.65613281 -95.96972656 94.16113281 C-100.26348679 100.59575948 -102.81447589 108.12836909 -105.28222656 115.41113281 C-105.53657471 116.15484131 -105.79092285 116.8985498 -106.05297852 117.66479492 C-107.6353876 122.51539833 -108.4232667 127.09150018 -108.96972656 132.16113281 C-109.29972656 133.25425781 -109.62972656 134.34738281 -109.96972656 135.47363281 C-117.7812123 164.27848646 -109.45390317 198.23569875 -95.03222656 223.47363281 C-91.77118414 228.71397103 -87.908397 233.42151682 -83.96972656 238.16113281 C-83.18597656 239.19238281 -82.40222656 240.22363281 -81.59472656 241.28613281 C-78.5388129 244.63308587 -75.16176664 247.12989195 -71.46972656 249.74316406 C-66.64788277 254.40679111 -63.75885451 259.67989846 -63.34204102 266.43383789 C-63.31480316 268.34925533 -63.31283266 270.26515922 -63.33300781 272.18066406 C-63.31744087 273.7121534 -63.31744087 273.7121534 -63.30155945 275.27458191 C-63.27205874 278.50794871 -63.27523135 281.74015668 -63.28222656 284.97363281 C-63.27332629 288.22463631 -63.25738182 291.47533491 -63.23075867 294.72624207 C-63.21586809 296.74174373 -63.21202582 298.75736473 -63.22053528 300.77290344 C-63.21680405 301.68452744 -63.21307281 302.59615143 -63.20922852 303.53540039 C-63.21098587 304.33432205 -63.21274323 305.13324371 -63.21455383 305.95637512 C-62.94240311 308.40719034 -62.19250462 310.03730058 -60.96972656 312.16113281 C-55.90312001 311.65349593 -52.51898771 309.18025852 -48.40722656 306.41113281 C-47.67270264 305.92813721 -46.93817871 305.4451416 -46.18139648 304.94750977 C-42.92516375 302.80479325 -39.68334668 300.64125731 -36.44921875 298.46533203 C-12.69029983 282.49107613 8.09258835 275.90112793 36.80761719 276.09863281 C38.77612302 276.10442378 40.74462888 276.11020821 42.71313572 276.11564636 C46.812281 276.12861796 50.91138652 276.15068744 55.01049805 276.17150879 C75.43931173 276.306036 75.43931173 276.306036 95.85839844 275.76660156 C97.05836708 275.71638855 97.05836708 275.71638855 98.28257751 275.66516113 C123.05409218 274.36057109 146.66747827 264.80654426 165.03027344 248.16113281 C165.51737793 247.72317383 166.00448242 247.28521484 166.50634766 246.83398438 C189.86419294 225.56956628 201.31596144 195.28902318 203.03027344 164.16113281 C203.08957031 163.17242187 203.14886719 162.18371094 203.20996094 161.16503906 C204.11577204 128.10293366 192.3986618 96.26499959 170.03027344 72.16113281 C169.42699219 71.47664063 168.82371094 70.79214844 168.20214844 70.08691406 C146.66926972 46.75962878 114.26905621 40.47264992 84.03027344 39.16113281 C78.08105855 38.99214996 72.12987523 38.99592686 66.17871094 38.99316406 C64.50550307 38.98993538 62.83229547 38.98657023 61.15908813 38.983078 C57.67489978 38.97714345 54.19073601 38.97523216 50.70654297 38.97583008 C47.18305312 38.97591122 43.65969362 38.96897847 40.13623047 38.95532227 C-4.01891286 38.08335537 -4.01891286 38.08335537 -45.96972656 50.16113281 Z " fill="#319CFE" transform="translate(160.9697265625,12.8388671875)"/>
<path d="M0 0 C8.16314991 4.91844464 13.31355879 11.09730466 16.171875 20.30859375 C17.78962052 30.355247 16.58343399 40.17727448 10.55859375 48.55078125 C4.64967312 55.70437474 -1.82087306 59.63520688 -11.015625 61.05859375 C-21.0862862 61.99106238 -30.31067469 58.98942833 -38.203125 52.80859375 C-40.53353958 50.58915129 -41.6290747 49.20629863 -42.828125 46.30859375 C-43.488125 45.64859375 -44.148125 44.98859375 -44.828125 44.30859375 C-45.158125 43.64859375 -45.488125 42.98859375 -45.828125 42.30859375 C-61.29121362 43.32475 -76.54461932 44.72109279 -91.828125 47.30859375 C-85.48350457 61.13230317 -77.84633026 72.59168695 -67.140625 83.43359375 C-66.52316406 84.06128662 -65.90570313 84.68897949 -65.26953125 85.33569336 C-61.40563244 89.12580244 -57.63990799 91.82549136 -52.828125 94.30859375 C-52.828125 94.96859375 -52.828125 95.62859375 -52.828125 96.30859375 C-52.11785156 96.50195312 -51.40757812 96.6953125 -50.67578125 96.89453125 C-49.75667969 97.15492188 -48.83757812 97.4153125 -47.890625 97.68359375 C-46.97410156 97.93882812 -46.05757812 98.1940625 -45.11328125 98.45703125 C-42.828125 99.30859375 -42.828125 99.30859375 -41.828125 101.30859375 C-39.96615554 102.23252539 -39.96615554 102.23252539 -37.828125 102.30859375 C-36.01513008 101.07905359 -36.01513008 101.07905359 -34.828125 99.30859375 C-34.828125 98.64859375 -34.828125 97.98859375 -34.828125 97.30859375 C-33.26573572 97.09554067 -31.70328145 96.88295964 -30.140625 96.671875 C-28.44475602 96.40546315 -26.75758885 96.08201721 -25.078125 95.7265625 C-15.47366281 93.78816193 -7.85153699 94.00444281 0.546875 99.43359375 C5.86100549 103.47199498 9.07030328 108.0038786 11.171875 114.30859375 C11.29459023 116.92556746 11.35700254 119.50427136 11.359375 122.12109375 C11.37162109 122.82041016 11.38386719 123.51972656 11.39648438 124.24023438 C11.40887159 128.6542103 10.79976683 132.20990959 9.171875 136.30859375 C8.511875 136.30859375 7.851875 136.30859375 7.171875 136.30859375 C6.945 136.86546875 6.718125 137.42234375 6.484375 137.99609375 C2.62390922 144.7978668 -3.676055 147.92457042 -10.828125 150.30859375 C-21.03239538 151.1707274 -28.39319908 149.86619874 -36.578125 143.68359375 C-40.74214236 139.88755932 -44.51345095 133.94102683 -45.0078125 128.234375 C-46.42822795 124.89978063 -49.93081801 124.02021739 -53.078125 122.62109375 C-60.96112196 118.92527133 -67.83205808 114.48376654 -74.828125 109.30859375 C-76.2887535 111.95598291 -76.828125 113.20307709 -76.828125 116.30859375 C-77.488125 116.30859375 -78.148125 116.30859375 -78.828125 116.30859375 C-78.96154297 117.55382812 -78.96154297 117.55382812 -79.09765625 118.82421875 C-79.97157529 122.99285931 -81.56636361 126.29994644 -83.515625 130.05859375 C-83.86995605 130.76089111 -84.22428711 131.46318848 -84.58935547 132.18676758 C-87.08562675 137.07104489 -89.84401225 141.69677781 -92.9921875 146.1953125 C-94.10758999 148.34063645 -94.10758999 148.34063645 -92.99609375 150.6796875 C-92.61066406 151.54722656 -92.22523438 152.41476563 -91.828125 153.30859375 C-91.12889407 160.48252147 -91.04822954 167.05221506 -94.828125 173.30859375 C-99.12713108 178.44351768 -103.41800519 181.90668677 -110.109375 182.6953125 C-117.04478523 182.91019166 -123.30930092 182.89050118 -128.828125 178.30859375 C-134.09985891 172.85955937 -136.45126037 167.4541047 -137.140625 159.87109375 C-136.40999657 151.5419297 -132.93150176 145.9292203 -126.703125 140.43359375 C-124.828125 139.30859375 -124.828125 139.30859375 -121.828125 139.30859375 C-121.498125 138.64859375 -121.168125 137.98859375 -120.828125 137.30859375 C-119.94125 137.26734375 -119.054375 137.22609375 -118.140625 137.18359375 C-113.02800505 135.83309037 -111.45991117 132.73250097 -108.828125 128.30859375 C-102.29083981 116.71502511 -95.0720121 102.99423722 -95.828125 89.30859375 C-97.29142734 85.63509517 -99.61821621 82.34374918 -101.703125 78.99609375 C-104.50355127 74.48211551 -107.23901202 69.94742117 -109.828125 65.30859375 C-110.488125 65.30859375 -111.148125 65.30859375 -111.828125 65.30859375 C-111.9725 64.23609375 -112.116875 63.16359375 -112.265625 62.05859375 C-112.66702473 59.38259556 -113.14329893 56.90978184 -113.828125 54.30859375 C-120.8073623 56.85230844 -127.16468516 59.90923132 -133.390625 63.93359375 C-134.28322021 64.50968384 -134.28322021 64.50968384 -135.19384766 65.09741211 C-138.00069672 66.95454207 -140.57742187 68.79357317 -142.828125 71.30859375 C-142.35375 72.36046875 -141.879375 73.41234375 -141.390625 74.49609375 C-137.86478968 82.82837438 -137.86207229 91.26050141 -140.734375 99.82421875 C-145.02184268 109.56289534 -152.43646078 114.31675092 -161.765625 118.68359375 C-170.67905633 120.50266137 -178.74392622 119.54203512 -186.828125 115.30859375 C-194.29837026 110.27429803 -198.72116019 103.95572791 -201.43359375 95.3984375 C-203.06315928 86.76658049 -202.34955969 78.84431824 -197.828125 71.30859375 C-197.45429688 70.67179687 -197.08046875 70.035 -196.6953125 69.37890625 C-193.75727764 64.84538226 -190.31421905 62.27110869 -185.828125 59.30859375 C-185.168125 58.64859375 -184.508125 57.98859375 -183.828125 57.30859375 C-182.838125 57.30859375 -181.848125 57.30859375 -180.828125 57.30859375 C-179.94640625 57.05529297 -179.94640625 57.05529297 -179.046875 56.796875 C-175.0677316 55.92118323 -170.9698558 56.46444877 -166.921875 56.6640625 C-163.74983631 56.57716686 -163.74983631 56.57716686 -161.546875 54.484375 C-159.71196844 52.2215571 -159.71196844 52.2215571 -157.828125 49.30859375 C-156.50404831 48.6237265 -155.16903259 47.95989172 -153.828125 47.30859375 C-153.065 46.68984375 -152.301875 46.07109375 -151.515625 45.43359375 C-143.76930147 39.30859375 -143.76930147 39.30859375 -139.828125 39.30859375 C-139.828125 38.64859375 -139.828125 37.98859375 -139.828125 37.30859375 C-117.71078598 28.30369774 -94.93073976 20.46772932 -70.8125 19.58203125 C-70.15765625 19.49179688 -69.5028125 19.4015625 -68.828125 19.30859375 C-68.498125 18.64859375 -68.168125 17.98859375 -67.828125 17.30859375 C-67.828125 17.96859375 -67.828125 18.62859375 -67.828125 19.30859375 C-67.33441406 19.15648438 -66.84070313 19.004375 -66.33203125 18.84765625 C-62.83581234 18.09496014 -59.32620487 17.90152303 -55.765625 17.68359375 C-55.04568359 17.63203125 -54.32574219 17.58046875 -53.58398438 17.52734375 C-50.32804078 17.32176885 -47.95374686 17.2667198 -44.828125 18.30859375 C-44.621875 17.48359375 -44.415625 16.65859375 -44.203125 15.80859375 C-40.76674242 7.06143809 -35.1348712 2.44052086 -26.828125 -1.69140625 C-18.68950464 -4.4042797 -7.69330455 -3.73047821 0 0 Z " fill="#30A1FE" transform="translate(288.828125,87.69140625)"/>
<path d="M0 0 C3 1 3 1 3 1 Z " fill="#FFFFFF" transform="translate(278,327)"/>
<path d="M0 0 C0.66 0.66 1.32 1.32 2 2 C1.34 2 0.68 2 0 2 C0 1.34 0 0.68 0 0 Z " fill="#00FFFF" transform="translate(301,211)"/>
<path d="M0 0 C2 1 2 1 2 1 Z " fill="#FFFFFF" transform="translate(186,329)"/>
<path d="" fill="#FFFFFF" transform="translate(0,0)"/>
<path d="" fill="#FFFFFF" transform="translate(0,0)"/>
<path d="" fill="#FFFFFF" transform="translate(0,0)"/>
<path d="" fill="#FFFFFF" transform="translate(0,0)"/>
<path d="" fill="#FFFFFF" transform="translate(0,0)"/>
<path d="" fill="#FFFFFF" transform="translate(0,0)"/>
<path d="" fill="#FFFFFF" transform="translate(0,0)"/>
<path d="" fill="#FFFFFF" transform="translate(0,0)"/>
<path d="" fill="#FFFFFF" transform="translate(0,0)"/>
<path d="" fill="#FFFFFF" transform="translate(0,0)"/>
<path d="" fill="#FFFFFF" transform="translate(0,0)"/>
<path d="" fill="#FFFFFF" transform="translate(0,0)"/>
<path d="" fill="#FFFFFF" transform="translate(0,0)"/>
<path d="" fill="#FFFFFF" transform="translate(0,0)"/>
<path d="" fill="#FFFFFF" transform="translate(0,0)"/>
<path d="" fill="#FFFFFF" transform="translate(0,0)"/>
<path d="" fill="#FFFFFF" transform="translate(0,0)"/>
<path d="" fill="#FFFFFF" transform="translate(0,0)"/>
<path d="" fill="#FFFFFF" transform="translate(0,0)"/>
<path d="" fill="#FFFFFF" transform="translate(0,0)"/>
<path d="" fill="#FFFFFF" transform="translate(0,0)"/>
<path d="" fill="#FFFFFF" transform="translate(0,0)"/>
<path d="" fill="#FFFFFF" transform="translate(0,0)"/>
<path d="" fill="#FFFFFF" transform="translate(0,0)"/>
</svg>
